<svg id="Layer_1" data-name="Layer 1" xmlns="http://www.w3.org/2000/svg" xmlns:xlink="http://www.w3.org/1999/xlink" viewBox="0 0 558.54 836.06"><defs><style>.cls-1{fill:#231f20;}.cls-2{fill:#383a35;}.cls-3{fill:url(#linear-gradient);}.cls-4{fill:url(#linear-gradient-2);}</style><linearGradient id="linear-gradient" x1="541.95" y1="120.67" x2="423.91" y2="946.97" gradientUnits="userSpaceOnUse"><stop offset="0" stop-color="#00b3e3"/><stop offset="0.13" stop-color="#00b3e3"/><stop offset="1" stop-color="#00b3e3" stop-opacity="0"/></linearGradient><linearGradient id="linear-gradient-2" x1="541.95" y1="120.67" x2="423.91" y2="946.97" gradientUnits="userSpaceOnUse"><stop offset="0" stop-color="#3b5cad" stop-opacity="0"/><stop offset="0.13" stop-color="#3b5cad" stop-opacity="0"/><stop offset="1" stop-color="#3b5cad"/></linearGradient></defs><title>CF_Icon_4-colour</title><path class="cls-1" d="M589.08,420.39c25.25-20.56,40.87-49.69,40.58-81.95C629.13,277,571.08,227.5,500,227.5S370.87,277,370.33,338.44c-.28,32.25,15.33,61.39,40.58,81.95,31.24,25.44,56.84,76.89,58.34,133.07,1.67,62.35-2.59,134.51-5.21,171.22-33.4,4.75-56.86,15.9-56.86,28.91,0,17.31,41.55,37.27,92.8,37.27s92.8-20,92.8-37.27c0-13-23.46-24.16-56.86-28.91-2.62-36.72-6.87-108.87-5.21-171.22C532.24,497.28,557.84,445.83,589.08,420.39Z" transform="translate(-220.73 -81.97)"/><path class="cls-2" d="M746.14,783.17a78.9,78.9,0,0,1,15.37-4.48,97.34,97.34,0,0,1,17.77-2.15s-.29-2-.68-5c-.18-2.94-1.57-6.84-2.9-10.71-.68-1.9-1.36-3.8-2-5.55-.79-1.76-1.79-3.37-2.51-4.76L768.7,746a157.8,157.8,0,0,1-18.34-4.16,143.65,143.65,0,0,1-16.55-5.7c-9.38-4.12-18.2-8.74-22.85-13.9-5.62-4.91-6.66-9.81-6.48-14.26a12.2,12.2,0,0,1,3-6.27,19.59,19.59,0,0,1,6.66-5.19s-2.26-1.25-5.55-3.12c-1.68-.9-3.51-2-5.66-3.08s-4.62-2.22-7-3.33c-4.66-2.22-9.31-4.44-13.22-5.91l-6.2-2.51a122.27,122.27,0,0,1-14.4,1c-5.16.11-10.42,0-15.54-.43-10.07-.86-20.31-2.26-29.16-4.87a72.65,72.65,0,0,1-11.89-4.12,55.12,55.12,0,0,1-8.89-4.69c-4.65-3.4-7.84-6.84-7.81-10.32L581.83,654c-4.37-.68-13.68-1.93-19.59-2.72-.11,1-.75,1.93-1,3.58l-1.5,7.24c-3.08,14.47,5.3,29.16,19.52,33.28,34.82,10.14,61.14,26.83,68.74,47.32,15.37,41.44-49.18,82-147.33,82S338,784.1,353.3,742.66c7.42-20,32.7-36.36,66.27-46.57a30.07,30.07,0,0,0,20.49-35L438,651.25c-3.9.47-8.45,1-13.11,1.61-5.84.64-11.39,1.68-15.65,2.36s-7.13,1.18-7.13,1.18c.29,3.37-2.11,7.16-6.7,10.42a58.48,58.48,0,0,1-8.31,4.91,100.79,100.79,0,0,1-11.46,4.3,114.48,114.48,0,0,1-14,3.22,138.08,138.08,0,0,1-15.08,2c-10.42.82-20.88,1-30.38-.14l-1.72.68c-1,.47-2.72,1.07-4.41,1.9-3.47,1.65-8.17,3.9-12.89,6.16s-8.81,4.84-12.18,6.7l-4,2.26c-.89.61-1.4.93-1.4.93,6.55,3,10.21,7.16,10.92,11.53,1.65,4.62-.61,9.42-4.87,14.65a62.55,62.55,0,0,1-9.21,7.59,82.9,82.9,0,0,1-13.18,7,142.77,142.77,0,0,1-34.85,10.78,22.2,22.2,0,0,0-2,4.66c-1,2.83-2.33,6.66-3.69,10.57-.57,3.87-1.11,7.84-1.54,10.89a17.27,17.27,0,0,0-.29,5.09c13.57.14,25.65,2.44,34.67,6.05,10.5,3.47,16.84,8.67,21.74,15,3.87,6.84,5.41,14,2,22.28-2.4,8.06-9,17.05-19.74,25.22l1.65,1.43c1.18.86,2.9,2.08,5,3.55,4.26,2.94,9.63,7.09,15.94,10.85,6.66,3.65,13.43,7.34,18.55,10.17,2.54,1.43,5.12,2.33,6.73,3.08s2.65,1.15,2.65,1.15c15.15-6.48,31.41-9.81,47.68-11.53a139.64,139.64,0,0,1,23.75-.57c7.77.39,15.69,1,23.1,2.76,7.34,1.93,14.51,3.76,20.78,6.56a119.45,119.45,0,0,1,17.41,9.85c10.71,7.31,18.95,17.62,22.49,28.48l13.79.54c8.31.22,19.38,1,30.41.39,11-.36,22.1-.54,30.3-1.07,8.1-.79,13.5-1.29,13.5-1.29a41.74,41.74,0,0,1,7.09-15.83,50.82,50.82,0,0,1,5.77-6.73,67.43,67.43,0,0,1,23.17-16.44,95.72,95.72,0,0,1,19.92-7.16c7.59-1.5,14.72-3,22.46-3.55s15.94-.25,23.64.07A167.37,167.37,0,0,1,703.55,876l8.38-4.66c4.8-2.87,11.71-6.27,17-10.5,5.41-4,11.1-7.81,14.54-11s5.55-5.23,5.55-5.23c-11.28-7.77-17.77-16.12-21.92-24.36a26.72,26.72,0,0,1-2.58-11.39,16.36,16.36,0,0,1,2.58-10.42c2.94-6.59,10.46-11.46,19-15.33" transform="translate(-220.73 -81.97)"/><path class="cls-2" d="M414.42,579.5S429,524.28,365.68,453.05l-2.1-2.2a175.45,175.45,0,0,1-41.37-113c0-96.8,78.84-175.55,175.75-175.55H502c96.91,0,175.76,78.76,175.76,175.55a175.42,175.42,0,0,1-41.35,112.93c-.31.36-1,1.1-2.11,2.18-56.22,56.29-48.77,126.5-48.77,126.5,102.65-35.39,172-131.91,172.59-240.19C758.9,203.94,649.63,88.56,514.6,82.08c-1.68-.08-3.35-.11-5-.11-2,0-9.64.15-9.6.15-.22,0-7.54-.15-9.57-.15-1.67,0-3.34,0-5,.11C350.36,88.56,241.1,203.94,241.84,339.31,242.41,447.59,311.77,544.11,414.42,579.5Z" transform="translate(-220.73 -81.97)"/><path class="cls-3" d="M589.08,420.39c25.25-20.56,40.87-49.69,40.58-81.95C629.13,277,571.08,227.5,500,227.5S370.87,277,370.33,338.44c-.28,32.25,15.33,61.39,40.58,81.95,31.24,25.44,56.84,76.89,58.34,133.07,1.67,62.35-2.59,134.51-5.21,171.22-33.4,4.75-56.86,15.9-56.86,28.91,0,17.31,41.55,37.27,92.8,37.27s92.8-20,92.8-37.27c0-13-23.46-24.16-56.86-28.91-2.62-36.72-6.87-108.87-5.21-171.22C532.24,497.28,557.84,445.83,589.08,420.39Z" transform="translate(-220.73 -81.97)"/><path class="cls-4" d="M589.08,420.39c25.25-20.56,40.87-49.69,40.58-81.95C629.13,277,571.08,227.5,500,227.5S370.87,277,370.33,338.44c-.28,32.25,15.33,61.39,40.58,81.95,31.24,25.44,56.84,76.89,58.34,133.07,1.67,62.35-2.59,134.51-5.21,171.22-33.4,4.75-56.86,15.9-56.86,28.91,0,17.31,41.55,37.27,92.8,37.27s92.8-20,92.8-37.27c0-13-23.46-24.16-56.86-28.91-2.62-36.72-6.87-108.87-5.21-171.22C532.24,497.28,557.84,445.83,589.08,420.39Z" transform="translate(-220.73 -81.97)"/></svg>